# xmcd
#
# Track frame offsets:
#	182
#	17432
#	30072
#	42190
#	59150
#	92370
#	110920
#	128902
#	149172
#	163610
#
# Disc length: 2442 seconds
#
# Revision: 0
# Processed by: cddbd v1.4PL0 Copyright (c) Steve Scherf et al.
# Submitted via: OrangeCD 4.1
#
DISCID=8309880a
DTITLE=Various Artist - The Joyous Sounds of America vol.III
DYEAR=1900
DGENRE=
TTITLE0=America the Beautiful
TTITLE1=Semper Fidelis
TTITLE2=American Made
TTITLE3=Shenandoah
TTITLE4=Stephen Foster Medley
TTITLE5=Battle Hymn of the Republic
TTITLE6=American Music
TTITLE7=City of New Orleans
TTITLE8=Song of the South
TTITLE9=God Bless America
EXTD=
EXTT0=
EXTT1=
EXTT2=
EXTT3=
EXTT4=
EXTT5=
EXTT6=
EXTT7=
EXTT8=
EXTT9=
PLAYORDER=
